<?xml version="1.0" standalone="no"?>
<!DOCTYPE svg PUBLIC "-//W3C//DTD SVG 20010904//EN"
 "http://www.w3.org/TR/2001/REC-SVG-20010904/DTD/svg10.dtd">
<svg version="1.0" xmlns="http://www.w3.org/2000/svg"
 width="260.000000pt" height="260.000000pt" viewBox="0 0 260.000000 260.000000"
 preserveAspectRatio="xMidYMid meet">
<metadata>
Created by potrace 1.11, written by Peter Selinger 2001-2013
</metadata>
<g transform="translate(0.000000,260.000000) scale(0.100000,-0.100000)"
fill="#000000" stroke="none">
<path d="M80 1982 c0 -4 27 -80 59 -168 33 -87 132 -359 221 -604 88 -245 176
-485 195 -535 18 -49 36 -100 40 -113 6 -22 9 -23 138 -20 l131 3 126 345 c70
190 186 509 260 710 73 201 135 371 137 378 4 9 -19 12 -94 12 l-98 0 -89
-247 c-48 -137 -130 -365 -181 -508 -52 -143 -113 -315 -137 -382 -24 -68 -46
-123 -49 -123 -3 0 -54 134 -112 298 -58 163 -120 335 -137 382 -17 47 -42
117 -56 155 -13 39 -53 149 -87 245 l-63 175 -102 3 c-56 1 -102 -1 -102 -6z"/>
<path d="M1609 1983 c-1 -5 -2 -331 -3 -725 l-1 -718 97 0 97 0 0 263 c0 144
1 301 1 350 l0 87 315 0 315 0 0 85 0 85 -314 0 -315 0 -3 43 c-2 23 -2 115 0
204 l3 163 367 2 367 3 1 70 c0 39 -1 76 -4 83 -3 9 -105 12 -463 12 -252 0
-460 -3 -460 -7z"/>
</g>
</svg>
